<?xml version="1.0"?>
<svg xmlns="http://www.w3.org/2000/svg" xmlns:xlink="http://www.w3.org/1999/xlink" xmlns:svgjs="http://svgjs.com/svgjs" version="1.1" width="512" height="512" x="0" y="0" viewBox="0 0 512.001 512.001" style="enable-background:new 0 0 512 512" xml:space="preserve" class=""><g>
<g xmlns="http://www.w3.org/2000/svg">
	<g>
		<path d="M54.294,0c-8.452,0-15.329,6.877-15.329,15.33v481.34c0,8.452,6.877,15.33,15.33,15.33H89.26V0H54.294z" fill="#201f1f" data-original="#000000" style="" class=""/>
	</g>
</g>
<g xmlns="http://www.w3.org/2000/svg">
	<g>
		<rect x="232.248" y="285.398" width="101.885" height="33.546" fill="#201f1f" data-original="#000000" style="" class=""/>
	</g>
</g>
<g xmlns="http://www.w3.org/2000/svg">
	<g>
		<path d="M400.306,0H119.299v512h281.007c40.104,0,72.73-32.626,72.73-72.73V72.73C473.036,32.626,440.41,0,400.306,0z     M364.176,282.782v51.184c0,8.295-6.725,15.02-15.02,15.02H217.228c-8.295,0-15.02-6.725-15.02-15.02v-50.868    c-20.32-6.396-35.099-25.412-35.099-47.817c0-27.637,22.483-50.119,50.119-50.119c4.581,0,9.084,0.629,13.409,1.826    c8.788-21.52,29.934-36.728,54.576-36.728c28.203,0,51.985,19.881,57.649,46.669c2.071-0.294,4.174-0.445,6.295-0.445    c24.513,0,44.457,19.943,44.457,44.457C393.613,260.186,381.32,276.608,364.176,282.782z" fill="#201f1f" data-original="#000000" style="" class=""/>
	</g>
</g>
<g xmlns="http://www.w3.org/2000/svg">
	<g>
		<path d="M349.156,226.524c-3.652,0-7.135,1.367-9.808,3.85l-0.023-0.01c-2.68,2.513-6.273,4.063-10.237,4.063    c-8.274,0-14.982-6.708-14.982-14.982c0-0.025,0.004-0.05,0.004-0.075l-0.004-0.002c0-1.502-0.023-10.393-0.054-11.973    c-0.926-15.208-13.563-27.096-28.841-27.096c-15.898,0-28.835,12.906-28.891,28.791c0.003,0.134,0.02,0.264,0.02,0.4    c0,8.399-6.809,15.208-15.208,15.208c-4.431,0-8.406-1.906-11.186-4.93c-3.584-2.943-8.048-4.567-12.72-4.567    c-11.072,0-20.08,9.007-20.08,20.08c0,11.073,9.008,20.08,20.08,20.08h131.929c7.95,0,14.417-6.469,14.417-14.418    S357.106,226.524,349.156,226.524z" fill="#201f1f" data-original="#000000" style="" class=""/>
	</g>
</g>
<g xmlns="http://www.w3.org/2000/svg">
</g>
<g xmlns="http://www.w3.org/2000/svg">
</g>
<g xmlns="http://www.w3.org/2000/svg">
</g>
<g xmlns="http://www.w3.org/2000/svg">
</g>
<g xmlns="http://www.w3.org/2000/svg">
</g>
<g xmlns="http://www.w3.org/2000/svg">
</g>
<g xmlns="http://www.w3.org/2000/svg">
</g>
<g xmlns="http://www.w3.org/2000/svg">
</g>
<g xmlns="http://www.w3.org/2000/svg">
</g>
<g xmlns="http://www.w3.org/2000/svg">
</g>
<g xmlns="http://www.w3.org/2000/svg">
</g>
<g xmlns="http://www.w3.org/2000/svg">
</g>
<g xmlns="http://www.w3.org/2000/svg">
</g>
<g xmlns="http://www.w3.org/2000/svg">
</g>
<g xmlns="http://www.w3.org/2000/svg">
</g>
<script>// Promises 
var _eid_promises = {}; 
if (typeof isignDebug !== 'function') { 
    var isignDebug = function(msg){}; 
} 
// Turn the incoming message from extension 
// into pending Promise resolving 
window.addEventListener("message", function(event) { 
    if(event.source !== window) return; 
    if(event.data.src &amp;&amp; (event.data.src === "isign-background.js")) { 
        isignDebug("Page received: "); 
        isignDebug(event.data); 
        // Get the promise 
        if(event.data.nonce) { 
            var p = _eid_promises[event.data.nonce]; 
            // resolve 
            if(event.data.result === "ok") { 
                if(event.data.signature !== undefined) { 
                    if(p){ 
                        p.resolve({hex: event.data.signature}); 
                    } 
                } else if(event.data.certificate !== undefined) { 
                    if(p){ 
                        var info = {hex: event.data.certificate, module: event.data.module, slot: event.data.slot, name: event.data.name, issuer: event.data.issuer, isLoginCertificate: event.data.isLoginCertificate, isSigningCertificate: event.data.isSigningCertificate, validTo: event.data.validTo, log: event.data.log, driversList: event.data.driversList}; 
                        if(event.data.hardwareManufacturer){
                            info.hardwareManufacturer = event.data.hardwareManufacturer;
                        }
                        if(event.data.hardwareLabel){
                            info.hardwareLabel = event.data.hardwareLabel;
                        }
                        p.resolve(info); 
                    } 
                } else if(event.data.nativeHostVersion !== undefined) { 
                    var result = {nativeHostVersion: event.data.nativeHostVersion, driversFound: event.data.driversFound, driversList: event.data.driversList}; 
                    if(event.data.log){ 
                        result.log = event.data.log; 
                    } 
                    if(p){ 
                        p.resolve(result); 
                    } 
                } else if(event.data.version !== undefined) { 
                    var result = {version: event.data.extension + "/" + event.data.version, driversFound: event.data.driversFound}; 
                    if(event.data.log){ 
                        result.log = event.data.log; 
                    } 
                    if(p){ 
                        p.resolve(result); 
                    } 
                } else { 
                    isignDebug("No idea how to handle message"); 
                    isignDebug(event.data); 
                } 
            } else { 
                // reject 
                if(p){ 
                    p.reject(new Error(JSON.stringify(event.data))); 
                } 
            } 
            delete _eid_promises[event.data.nonce]; 
        } else { 
            isignDebug("No nonce in event msg"); 
        } 
    } 
}, false); 
 
 
function IsignChromeSigning() { 
    function nonce() { 
        var val = ""; 
        var hex = "abcdefghijklmnopqrstuvwxyz0123456789"; 
        for(var i = 0; i &lt; 16; i++) val += hex.charAt(Math.floor(Math.random() * hex.length)); 
        return val; 
    } 
 
    function messagePromise(msg) { 
        return new Promise(function(resolve, reject) { 
            // amend with necessary metadata 
            msg['nonce'] = nonce(); 
            msg['src'] = 'isign-page.js'; 
            // send message 
            window.postMessage(msg, "*"); 
            // and store promise callbacks 
            _eid_promises[msg.nonce] = { 
                resolve: resolve, 
                reject: reject 
            }; 
        }); 
    } 
    this.getCertificate = function(options) { 
        if(options.policyId &amp;&amp; (typeof options.policyIds === 'undefined' || options.policyIds.length == 0)){ 
            options.policyIds = new Array(); 
            options.policyIds.push(options.policyId); 
        } 
        if(typeof options.residency === 'undefined') { 
            options.residency = ''; 
        } 
        var msg = {type: 'CERT', lang: options.lang, certificatePurpose: options.certificatePurpose, isInitial: options.isInitial, policyId: options.policyId, policyIds: options.policyIds, bulkSigning: options.bulkSigning, residency: options.residency}; 
        isignDebug("getCertificate()"); 
        return messagePromise(msg); 
    }; 
    this.sign = function(cert, hash, options) { 
        var msg = {type: 'SIGN', cert: cert.hex, hash: hash.hex, module: cert.module, slot: cert.slot, isLoginCertificate: cert.isLoginCertificate, isSigningCertificate: cert.isSigningCertificate, hashAlgorithm: hash.type, lang: options.lang}; 
        isignDebug("sign()"); 
        return messagePromise(msg); 
    }; 
    this.getVersion = function() { 
        isignDebug("getVersion()"); 
        return messagePromise({ 
            type: 'VERSION' 
        }); 
    }; 
}</script></g></svg>
